<svg width="378" height="334" viewBox="0 0 378 334" fill="none" xmlns="http://www.w3.org/2000/svg">
<path fill-rule="evenodd" clip-rule="evenodd" d="M42.6635 138.263C53.4005 102.775 89.2383 83.8629 121.873 66.0675C150.755 50.3184 181.951 39.1292 214.423 44.6036C247.861 50.2408 276.608 69.3202 297.777 95.7224C321.198 124.934 343.563 159.903 336.263 196.564C328.961 233.236 295.058 257.335 262.056 275.125C232.419 291.099 199.153 292.824 165.731 288.484C129.048 283.721 89.7077 278.263 66.3132 249.706C41.2582 219.123 31.2321 176.047 42.6635 138.263Z" fill="#F7F3F4"/>
<path opacity="0.2" fill-rule="evenodd" clip-rule="evenodd" d="M28.3437 135.445C40.1295 96.4899 79.468 75.7309 115.29 56.1972C146.993 38.9097 181.237 26.6275 216.881 32.6366C253.586 38.8245 285.14 59.7676 308.377 88.7488C334.086 120.814 358.635 159.198 350.622 199.441C342.607 239.695 305.393 266.148 269.166 285.675C236.635 303.21 200.119 305.104 163.433 300.34C123.166 295.111 79.9832 289.12 54.3034 257.774C26.801 224.204 15.7956 176.92 28.3437 135.445Z" fill="#F7F3F4"/>
</svg>
